<svg id="visual" viewBox="0 0 900 600" width="900" height="600" xmlns="http://www.w3.org/2000/svg" xmlns:xlink="http://www.w3.org/1999/xlink" version="1.1"><rect x="0" y="0" width="900" height="600" fill="#292c35"></rect><g transform="translate(897.6451872547432 -45.5024720160402)"><path d="M313.9 -353.6C417.8 -286.9 520.6 -198.4 593.4 -63.5C666.2 71.4 708.9 252.7 645.3 381.6C581.6 510.5 411.5 586.9 260.6 585.1C109.7 583.2 -22.1 503.1 -192.3 467.5C-362.4 431.9 -570.9 441 -641.5 353.5C-712 266.1 -644.5 82.2 -583.4 -74.8C-522.3 -231.8 -467.5 -361.8 -371.3 -429.8C-275.1 -497.9 -137.6 -503.9 -16.3 -484.5C105 -465.1 210 -420.2 313.9 -353.6" fill="#5222c0"></path></g></svg>